<svg width="1200" height="400" xmlns="http://www.w3.org/2000/svg">
  <defs>
    <linearGradient id="bgGrad" x1="0%" y1="0%" x2="100%" y2="100%">
      <stop offset="0%" style="stop-color:#0f172a;stop-opacity:1" />
      <stop offset="100%" style="stop-color:#1e293b;stop-opacity:1" />
    </linearGradient>
    
    <linearGradient id="lineGrad" x1="0%" y1="0%" x2="100%" y2="0%">
      <stop offset="0%" style="stop-color:#38bdf8;stop-opacity:0.6" /> <stop offset="100%" style="stop-color:#fb923c;stop-opacity:0.6" /> </linearGradient>
  </defs>

  <rect width="100%" height="100%" fill="url(#bgGrad)"/>

  <g stroke="url(#lineGrad)" stroke-width="1.5" stroke-linecap="round">
    <line x1="100" y1="300" x2="300" y2="150" />
    <line x1="300" y1="150" x2="500" y2="250" />
    <line x1="300" y1="150" x2="400" y2="100" />
    <line x1="500" y1="250" x2="700" y2="180" />
    <line x1="700" y1="180" x2="900" y2="280" />
    <line x1="900" y1="280" x2="1100" y2="120" />
    
    <line x1="150" y1="350" x2="300" y2="150" opacity="0.3" />
    <line x1="500" y1="250" x2="600" y2="350" opacity="0.3" />
    <line x1="700" y1="180" x2="800" y2="80" opacity="0.3" />
  </g>

  <g fill="#f8fafc">
    <circle cx="100" cy="300" r="4" opacity="0.8"/>
    <circle cx="300" cy="150" r="6" />
    <circle cx="500" cy="250" r="5" />
    <circle cx="400" cy="100" r="3" opacity="0.6"/>
    <circle cx="700" cy="180" r="6" />
    <circle cx="900" cy="280" r="5" />
    <circle cx="1100" cy="120" r="4" opacity="0.8"/>
    <circle cx="600" cy="350" r="3" opacity="0.4"/>
    <circle cx="800" cy="80" r="3" opacity="0.4"/>
  </g>

  <text x="60" y="320" font-family="'Segoe UI', Roboto, Helvetica, Arial, sans-serif" font-weight="bold" font-size="28" fill="#e2e8f0" opacity="0.1">
    MACHINE LEARNING
  </text>
  <text x="60" y="360" font-family="'Segoe UI', Roboto, Helvetica, Arial, sans-serif" font-weight="300" font-size="16" fill="#94a3b8" opacity="0.1">
    PYTHON REPRODUCTION
  </text>
</svg>
